<?xml version="1.0" standalone="no"?>
<!DOCTYPE svg PUBLIC "-//W3C//DTD SVG 20010904//EN"
 "http://www.w3.org/TR/2001/REC-SVG-20010904/DTD/svg10.dtd">
<svg version="1.0" xmlns="http://www.w3.org/2000/svg"
 width="983.000000pt" height="1034.000000pt" viewBox="0 0 983.000000 1034.000000"
 preserveAspectRatio="xMidYMid meet">

<g transform="translate(0.000000,1034.000000) scale(0.100000,-0.100000)"
fill="#000000" stroke="none">
<path d="M4995 10333 c-27 -2 -107 -10 -176 -18 -124 -14 -140 -20 -1315 -421
-1364 -466 -1291 -440 -1303 -462 -12 -24 -471 -1615 -471 -1634 0 -9 8 -25
18 -37 11 -13 224 -102 576 -241 307 -121 565 -224 572 -228 9 -5 -266 -105
-709 -259 -397 -138 -732 -254 -745 -258 -12 -3 -26 -15 -32 -25 -25 -46
-1400 -3716 -1400 -3735 0 -13 8 -32 17 -43 21 -24 1467 -844 1500 -850 13 -2
63 16 125 46 383 186 1872 882 1877 877 3 -4 26 -484 52 -1069 27 -617 50
-1070 56 -1081 14 -24 1601 -895 1632 -895 28 0 110 80 880 865 l491 499 0 61
c-1 33 -34 512 -74 1065 -41 553 -71 1008 -68 1011 4 4 165 90 357 191 567
300 806 436 1090 623 319 208 555 396 780 620 255 254 442 509 589 805 217
436 307 872 293 1414 -14 540 -120 1027 -307 1411 -257 527 -624 830 -1424
1174 -787 339 -1580 542 -2311 591 -139 9 -453 11 -570 3z m525 -173 c655 -40
1324 -194 2020 -466 l174 -69 -154 -21 c-236 -32 -458 -82 -659 -146 -53 -17
-571 -212 -1151 -435 -580 -222 -1062 -405 -1070 -406 -16 -1 -2120 750 -2132
761 -11 10 2167 751 2242 763 171 27 469 35 730 19z m2496 -710 c86 -9 122
-17 169 -40 271 -132 573 -358 724 -544 269 -332 421 -736 503 -1336 19 -141
22 -209 22 -470 0 -264 -3 -324 -22 -445 -150 -957 -684 -1640 -1813 -2318
-211 -127 -489 -279 -914 -502 -176 -92 -331 -178 -345 -191 l-24 -24 78
-1071 78 -1071 -109 -112 c-60 -61 -314 -320 -565 -575 l-456 -463 -6 93 c-4
52 -51 1059 -106 2239 -55 1180 -101 2171 -102 2203 l-3 58 390 184 c215 101
430 204 478 230 49 26 220 109 380 185 522 246 735 358 957 504 423 279 648
564 701 891 25 157 -5 394 -64 512 -67 131 -208 233 -393 283 -110 31 -348 38
-494 16 -103 -16 -125 -25 -1153 -467 -577 -248 -1051 -448 -1054 -445 -6 6
-102 1544 -103 1642 l0 50 1063 407 c584 223 1114 422 1177 441 222 66 494
119 694 136 138 11 192 11 312 0z m-4552 -584 c620 -222 1129 -406 1130 -408
4 -5 104 -1682 100 -1686 -1 -2 -626 243 -1389 544 -862 340 -1384 552 -1381
559 2 6 92 317 200 691 208 718 203 704 209 704 2 0 511 -182 1131 -404z
m4071 -1361 c133 -37 230 -105 277 -191 32 -59 58 -190 58 -291 0 -266 -144
-520 -421 -743 -249 -201 -483 -332 -1139 -642 -162 -77 -347 -166 -410 -200
-63 -33 -283 -139 -489 -235 l-374 -175 -741 367 c-408 202 -1156 572 -1663
823 -508 251 -923 459 -923 462 0 3 326 119 724 258 l724 253 764 -301 c419
-166 780 -310 801 -321 44 -22 94 -25 122 -5 11 7 504 222 1095 476 859 370
1090 465 1150 476 103 18 364 12 445 -11z m-4299 -1776 c934 -462 1703 -844
1709 -850 9 -9 230 -4627 222 -4636 -3 -2 -313 166 -691 373 -682 375 -686
377 -686 408 2 116 -123 2898 -131 2928 -9 36 -15 40 -152 106 -78 38 -384
187 -680 331 -295 143 -548 261 -562 261 -38 0 -61 -30 -87 -117 -157 -507
-693 -2193 -699 -2193 -3 0 -292 161 -640 359 -402 227 -633 364 -632 372 2
12 1273 3394 1304 3472 6 15 15 27 19 27 4 0 772 -378 1706 -841z m-266 -1598
c283 -138 517 -255 521 -259 4 -4 13 -148 21 -319 l13 -313 -805 -379 c-443
-209 -858 -405 -924 -436 l-118 -55 7 27 c9 39 636 2026 641 2035 6 9 49 -11
644 -301z"/>
</g>
</svg>
