<svg id="Layer_1" data-name="Layer 1" xmlns="http://www.w3.org/2000/svg" viewBox="0 0 391.86 374.07"><defs><style>.cls-1{fill:#fff;}</style></defs><path class="cls-1" d="M420.45,682.2a80.15,80.15,0,0,1-28.6-5.34c-35.23-13.43-58-48.47-58-89.27V402.75c0-40.81,22.76-75.85,58-89.28,31.86-12.13,66.33-3.24,89.94,23.25L610.12,480.64a18.49,18.49,0,0,1-27.59,24.61L454.2,361.32c-13.55-15.2-31.48-20.05-49.18-13.3-20.77,7.91-34.2,29.4-34.2,54.73V587.59c0,25.33,13.43,46.81,34.2,54.73,17.69,6.74,35.62,1.89,49.18-13.31a18.48,18.48,0,1,1,27.59,24.6C465.16,672.26,443.15,682.2,420.45,682.2Z" transform="translate(-333.86 -308.13)"/><path class="cls-1" d="M639.12,682.2c-22.7,0-44.71-9.93-61.34-28.59L449.45,509.69A18.48,18.48,0,1,1,477,485.09L605.37,629c13.56,15.2,31.48,20,49.19,13.31,20.76-7.92,34.19-29.4,34.19-54.73V402.75c0-25.33-13.43-46.82-34.19-54.73-17.72-6.75-35.64-1.9-49.19,13.3a18.48,18.48,0,1,1-27.59-24.6c23.61-26.48,58.06-35.39,89.94-23.25,35.23,13.43,58,48.47,58,89.28V587.59c0,40.8-22.76,75.84-58,89.27A80.15,80.15,0,0,1,639.12,682.2Z" transform="translate(-333.86 -308.13)"/></svg>